<?xml version="1.0" encoding="utf-8"?>
<!-- Generated by IcoMoon.io -->
<!DOCTYPE svg PUBLIC "-//W3C//DTD SVG 1.1//EN" "http://www.w3.org/Graphics/SVG/1.1/DTD/svg11.dtd">
<svg version="1.1" xmlns="http://www.w3.org/2000/svg" xmlns:xlink="http://www.w3.org/1999/xlink" width="512" height="512" viewBox="0 0 512 512">
<g>
</g>
	<path d="M34.294 125.716c-4.925 6.758-7.916 15.032-7.916 24.013v212.521c0 6.134 1.465 11.961 3.881 17.203l148.511-128.215-144.476-125.522z" fill="#000000" />
	<path d="M481.915 379.166c2.345-5.181 3.717-10.875 3.717-16.906v-212.521c0-9.615-3.43-18.34-8.97-25.344l-147.917 125.092 153.17 129.68z" fill="#000000" />
	<path d="M255.99 189.737c28.089 0 52.039 17.531 61.675 42.199l142.224-120.269c-4.793-1.925-9.943-3.041-15.39-3.041h-377.017c-6.114 0-11.879 1.433-17.111 3.83l142.397 123.709c8.438-26.88 33.556-46.428 63.222-46.428z" fill="#000000" />
	<path d="M320.85 269.701c-6.318 30.003-32.942 52.572-64.86 52.572-32.512 0-59.515-23.429-65.126-54.313l-147.548 127.385c6.769 4.997 15.094 8.018 24.156 8.018h377.017c9.185 0 17.623-3.134 24.443-8.223l-148.081-125.44z" fill="#000000" />
	<path d="M290.939 256.010c0 9.329-3.635 18.094-10.25 24.688-6.584 6.615-15.339 10.24-24.699 10.24-9.575 0-18.565-3.82-25.211-10.762-6.226-6.533-9.677-15.114-9.677-24.166 0-19.262 15.626-34.928 34.888-34.928 9.36 0 18.125 3.635 24.699 10.24 6.615 6.595 10.25 15.36 10.25 24.688zM255.99 202.158c-29.666 0-53.832 24.146-53.832 53.852 0 13.967 5.315 27.207 14.93 37.305 10.322 10.66 24.105 16.558 38.902 16.558 14.346 0 27.914-5.601 38.113-15.769 10.137-10.189 15.76-23.695 15.76-38.093 0-14.398-5.622-27.914-15.76-38.083-10.199-10.158-23.767-15.769-38.113-15.769z" fill="#000000" />
	<path d="M290.764 234.628l-56.132 56.099-13.392-13.399 56.132-56.1 13.392 13.399z" fill="#000000" />
</svg>
