<svg width="512" height="512" xmlns="http://www.w3.org/2000/svg">

 <g>
  <title>background</title>
  <rect fill="none" id="canvas_background" height="402" width="582" y="-1" x="-1"/>
 </g>
 <g>
  <title>Layer 1</title>
  <path fill="#999999" id="svg_1" d="m384,224l0,-96c0,-70.562 -57.406006,-128 -128,-128c-70.578003,0 -128,57.438 -128,128l0,96c-35.344002,0 -64,28.656006 -64,64l0,160c0,35.343994 28.655998,64 64,64l256,0c35.343994,0 64,-28.656006 64,-64l0,-160c0,-35.343994 -28.656006,-64 -64,-64zm-112,155.093994l0,52.906006c0,8.843994 -7.156006,16 -16,16s-16,-7.156006 -16,-16l0,-52.906006c-9.391006,-5.562988 -16,-15.375 -16,-27.093994c0,-17.687988 14.328003,-32 32,-32s32,14.312988 32,32c0,11.718994 -6.609009,21.531006 -16,27.093994zm48,-155.093994l-128,0l0,-96c0,-35.313004 28.703003,-64 64,-64c35.281006,0 64,28.688004 64,64l0,96z"/>
 </g>
</svg>