<?xml version="1.0" encoding="utf-8"?>
<!-- Generator: Adobe Illustrator 16.0.0, SVG Export Plug-In . SVG Version: 6.00 Build 0)  -->
<!DOCTYPE svg PUBLIC "-//W3C//DTD SVG 1.1//EN" "http://www.w3.org/Graphics/SVG/1.1/DTD/svg11.dtd">
<svg version="1.1" id="Layer_1" xmlns="http://www.w3.org/2000/svg" xmlns:xlink="http://www.w3.org/1999/xlink" x="0px" y="0px"
	 width="512px" height="512px" viewBox="0 0 512 512" enable-background="new 0 0 512 512" xml:space="preserve">
<g>
	<path d="M474.467,195.26L255.917,3.5L37.135,195.464c0,0-21.134,19.87-21.134,35.086v236.899c0,21.92,17.77,39.69,39.689,39.69
		h400.621c21.919,0,39.689-17.771,39.689-39.69V230.55C496,215.175,474.467,195.26,474.467,195.26z M471.815,264.039l-90.521,68.992
		l90.521,139.38h-40.931l-85.535-111.982L256,428.527V429l-0.312-0.235L255.38,429v-0.473l-89.35-68.1L80.496,472.411H39.566
		l90.521-139.38l-90.521-68.992v-42.171l54.697,36.047c-1.463-10.178,1.72-20.895,9.55-28.725L226.252,106.75
		c13.194-13.195,34.587-13.195,47.781,0l126.92,126.919c7.797,7.797,10.982,18.457,9.564,28.595l61.298-40.396V264.039z"/>
	
		<rect x="212.974" y="199.867" transform="matrix(-0.7071 -0.7071 0.7071 -0.7071 373.0185 568.2422)" width="182.443" height="14"/>
	
		<rect x="186.779" y="223.697" transform="matrix(-0.7071 -0.7071 0.7071 -0.7071 311.451 590.3991)" width="182.443" height="13.999"/>
	
		<rect x="162.674" y="248.998" transform="matrix(-0.7071 -0.7071 0.7071 -0.7071 252.4103 616.5452)" width="182.442" height="13.999"/>
	
		<rect x="136.674" y="274.998" transform="matrix(-0.7071 -0.7071 0.7071 -0.7071 189.6408 642.5452)" width="182.442" height="13.999"/>
</g>
</svg>
