<?xml version="1.0" encoding="utf-8"?>
<!-- Generator: Adobe Illustrator 16.0.0, SVG Export Plug-In . SVG Version: 6.00 Build 0)  -->
<!DOCTYPE svg PUBLIC "-//W3C//DTD SVG 1.1//EN" "http://www.w3.org/Graphics/SVG/1.1/DTD/svg11.dtd">
<svg version="1.1" id="Layer_1" xmlns="http://www.w3.org/2000/svg" xmlns:xlink="http://www.w3.org/1999/xlink" x="0px" y="0px"
	 width="512px" height="512px" viewBox="0 0 512 512" enable-background="new 0 0 512 512" xml:space="preserve">
<path d="M384,243.5V159c0-70.688-57.313-128-128-128S128,88.313,128,159v84.5c-10.75,3.5-21.5,7.125-32,11.5v192
	c102.406,42.656,217.594,42.656,320,0V255C405.5,250.625,394.75,247,384,243.5z M288,415h-64l11.938-71.625
	C228.813,337.5,224,328.938,224,319c0-17.688,14.313-32,32-32s32,14.313,32,32c0,9.938-4.813,18.5-11.938,24.375L288,415z
	 M352,234.719c-63.156-15-128.813-15-192,0V159c0-52.938,43.063-96,96-96s96,43.063,96,96V234.719z"/>
</svg>
