<?xml version="1.0" encoding="utf-8"?>
<!-- Generator: Adobe Illustrator 16.0.0, SVG Export Plug-In . SVG Version: 6.00 Build 0)  -->
<!DOCTYPE svg PUBLIC "-//W3C//DTD SVG 1.1//EN" "http://www.w3.org/Graphics/SVG/1.1/DTD/svg11.dtd">
<svg version="1.1" id="Layer_1" xmlns="http://www.w3.org/2000/svg" xmlns:xlink="http://www.w3.org/1999/xlink" x="0px" y="0px"
	 width="512px" height="512px" viewBox="0 0 512 512" enable-background="new 0 0 512 512" xml:space="preserve">
<g>
	<path fill="#1D1D1B" d="M280.104,248.976c-51.409-51.403-51.396-135.038,0-186.44c51.401-51.402,135.023-51.402,186.438,0.007
		c51.391,51.388,51.401,135.03,0,186.433C415.143,300.365,331.506,300.365,280.104,248.976z M446.461,82.627
		c-40.335-40.328-105.939-40.328-146.272-0.007c-40.321,40.332-40.321,105.938,0,146.271c40.318,40.321,105.938,40.321,146.272,0
		C486.778,188.559,486.778,122.947,446.461,82.627z"/>
	<path fill="#1D1D1B" d="M99.531,484.807c-11.089,11.082-29.079,11.082-40.167-0.013l-15.063-15.064
		c-11.096-11.097-11.096-29.086-0.007-40.181l168.062-168.062c11.096-11.083,29.086-11.083,40.182,0.013l15.056,15.063
		c11.096,11.082,11.096,29.086,0.007,40.183L99.531,484.807z"/>
</g>
</svg>
