<?xml version="1.0" encoding="utf-8"?>
<!-- Generator: Adobe Illustrator 16.0.0, SVG Export Plug-In . SVG Version: 6.00 Build 0)  -->
<!DOCTYPE svg PUBLIC "-//W3C//DTD SVG 1.1//EN" "http://www.w3.org/Graphics/SVG/1.1/DTD/svg11.dtd">
<svg version="1.1" id="Layer_1" xmlns="http://www.w3.org/2000/svg" xmlns:xlink="http://www.w3.org/1999/xlink" x="0px" y="0px"
	 width="512px" height="512px" viewBox="0 0 512 512" enable-background="new 0 0 512 512" xml:space="preserve">
<path d="M512,256C512,114.625,397.375,0,256,0S0,114.625,0,256s114.625,256,256,256S512,397.375,512,256z M32,256
	C32,132.469,132.5,32,256,32s224,100.469,224,224c0,123.5-100.5,224-224,224S32,379.5,32,256z M256,256V64
	c106.031,0,192,85.969,192,192H256z M125.438,162.125l-16,27.719l-27.719-16l16-27.719L125.438,162.125z M386.563,349.844l16-27.688
	l27.719,16l-16,27.688L386.563,349.844z M189.844,109.438l-27.719,16l-16-27.719l27.719-16L189.844,109.438z M322.125,402.563
	l27.719-16l16,27.719l-27.688,16L322.125,402.563z M272,416v32l-32,0.031V416H272z M189.844,402.563l-16,27.719l-27.719-15.969
	l16.031-27.75L189.844,402.563z M125.438,349.844l-27.719,16.031l-16.031-27.688l27.75-16.031L125.438,349.844z M96,272l-32,0.031
	l-0.063-32H96V272z"/>
</svg>
